<?xml version="1.0" encoding="UTF-8"?>
<svg id="Capa_1" data-name="Capa 1" xmlns="http://www.w3.org/2000/svg" viewBox="0 0 135.84 34.28">
  <defs>
    <style>
      .cls-1 {
        fill: #f0ede5;
      }
    </style>
  </defs>
  <path class="cls-1" d="M28.79,8.69c-1.26-1.57-2.46-2.91-3.6-4.02-1.14-1.11-2.25-1.92-3.33-2.45-.52-.25-1.47-.45-2.84-.62-1.37-.17-2.96-.25-4.78-.25-.31,0-.66,0-1.06.02-.4.02-.79.03-1.15.05-.37.02-.72.03-1.04.05-.32.02-.56.02-.72.02-.03.18-.07.37-.12.55-.05.18-.09.4-.12.65-.03.25-.06.56-.09.95-.03.39-.06.85-.09,1.41-.03,1.08-.05,2.26-.07,3.53-.02,1.28-.02,2.49-.02,3.63v4.39h.83c.49,0,1.04-.02,1.64-.05.6-.03,1.22-.07,1.87-.12.65-.05,1.19-.12,1.62-.21,1.11-.25,1.99-.57,2.63-.97.65-.4,1.16-.88,1.52-1.43.37-.55.63-1.16.79-1.82.15-.66.29-1.38.42-2.15h.55v14.88h-.55c-.25-.99-.6-2.03-1.06-3.12-.46-1.09-1.02-1.93-1.66-2.52-.58-.52-1.21-.92-1.87-1.18-.66-.26-1.44-.42-2.33-.49-.46-.03-.86-.05-1.2-.07-.34-.02-.66-.02-.97-.02h-2.22v5.73c0,.86,0,1.66.02,2.38.02.72.02,1.35.02,1.87.03.99.08,1.92.16,2.8.08.88.25,1.53.53,1.96.28.43.75.76,1.41.99.66.23,1.62.38,2.89.44v.46H0v-.46c.77-.12,1.49-.32,2.15-.6.66-.28,1.21-.66,1.64-1.15.15-.19.28-.45.37-.81.09-.35.18-.76.25-1.22.08-.46.13-.95.16-1.46.03-.51.05-1.01.05-1.5,0-.43,0-1.02.02-1.76.02-.74.03-1.55.05-2.43s.02-1.78.02-2.7v-11.69c0-.55,0-1.12-.02-1.71-.02-.58-.05-1.14-.09-1.66-.05-.52-.12-.99-.23-1.41-.11-.42-.25-.72-.44-.9-.46-.49-.96-.81-1.48-.95-.52-.14-1.2-.27-2.03-.39v-.46h25.69l3.14,7.76-.46.23Z"/>
  <path class="cls-1" d="M92.88,33.96v-.51c1.32-.06,2.43-.34,3.33-.83.89-.49,1.49-1.06,1.8-1.71.19-.4.32-.9.42-1.5.09-.6.15-1.21.18-1.83.06-2.03.09-3.97.09-5.82V2.96c-1.02,2.28-1.95,4.37-2.8,6.28-.85,1.91-1.69,3.77-2.52,5.59-.83,1.82-1.67,3.67-2.52,5.57-.85,1.89-1.78,3.98-2.8,6.26-.15.31-.37.79-.65,1.46-.28.66-.55,1.34-.83,2.03-.28.69-.54,1.32-.79,1.89-.25.57-.4.95-.46,1.13h-.28c-.99-2.28-1.96-4.54-2.93-6.79-.97-2.25-1.92-4.41-2.84-6.49-.92-2.08-1.79-4.03-2.59-5.85-.8-1.82-1.52-3.43-2.17-4.85-.65-1.42-1.18-2.6-1.59-3.56-.42-.95-.7-1.6-.85-1.94,0,2.03,0,3.83-.02,5.38-.02,1.56-.03,3.1-.05,4.62-.02,1.52-.02,3.13-.02,4.83v5.91c0,1.45.05,2.7.14,3.77.09,1.06.32,1.96.69,2.68.37.72.93,1.29,1.69,1.71.75.42,1.79.72,3.12.9v.46h-12.06v-.46c1.08-.22,1.96-.53,2.63-.95.68-.42,1.22-.99,1.62-1.73.4-.74.69-1.66.88-2.75.18-1.09.29-2.43.32-4,.06-1.32.11-2.89.14-4.69.03-1.8.05-3.73.05-5.8v-5.82c0-.62-.02-1.37-.05-2.26-.03-.86-.22-1.56-.55-2.1-.34-.54-.74-.96-1.2-1.27-.46-.31-.96-.53-1.48-.67-.52-.14-.97-.24-1.34-.3v-.46h9.84l11.04,25.14c1.36-2.93,2.68-5.84,3.97-8.73,1.29-2.89,2.46-5.51,3.49-7.86,1.03-2.34,1.88-4.29,2.54-5.85.66-1.56,1.04-2.46,1.13-2.7h9.84v.46c-1.26.03-2.23.29-2.89.79-.66.49-1.12,1.08-1.36,1.76-.18.52-.31,1.34-.37,2.45-.06,1.11-.11,2.2-.14,3.28-.03,1.48-.05,2.91-.05,4.3v9.19c0,1.63.02,3.36.05,5.17,0,.59.04,1.18.12,1.78.08.6.21,1.07.39,1.41.03.06.15.21.35.44.2.23.48.48.85.74.37.26.83.49,1.39.69.55.2,1.2.32,1.94.35v.46h-15.85Z"/>
  <path class="cls-1" d="M62.24,11.41c-.4-1.48-1-2.86-1.8-4.16-.8-1.29-1.75-2.42-2.84-3.37-1.09-.95-2.33-1.71-3.7-2.26-1.37-.55-2.83-.83-4.37-.83-2.12,0-4.02.48-5.68,1.43-1.66.96-3.06,2.22-4.18,3.79-1.12,1.57-1.99,3.35-2.59,5.34-.6,1.99-.9,4.03-.9,6.12,0,2.22.32,4.3.95,6.24.63,1.94,1.53,3.63,2.7,5.06,1.17,1.43,2.59,2.56,4.25,3.4,1.66.83,3.51,1.25,5.54,1.25,1.6,0,3.1-.29,4.5-.88,1.4-.58,2.65-1.36,3.74-2.31,1.09-.95,2.02-2.06,2.77-3.3.75-1.25,1.27-2.53,1.55-3.86h.55l-.14,10.17h-.55c-.37-.52-.76-1-1.16-1.43-.4-.43-.68-.65-.83-.65-.06,0-.34.16-.83.49-.49.32-1.2.68-2.13,1.06-.92.39-2.05.72-3.37,1.02s-2.85.44-4.57.44c-2.86,0-5.45-.41-7.76-1.22-2.31-.82-4.27-1.97-5.89-3.47-1.62-1.49-2.86-3.28-3.72-5.36-.86-2.08-1.29-4.37-1.29-6.86,0-.55.04-1.19.12-1.89.08-.71.21-1.46.42-2.26.2-.8.48-1.64.83-2.52.35-.88.81-1.76,1.36-2.66.65-1.05,1.45-2.05,2.4-3,.96-.95,2.08-1.79,3.37-2.52,1.29-.72,2.76-1.3,4.39-1.73,1.63-.43,3.47-.65,5.5-.65,1.85,0,3.47.17,4.85.51,1.39.34,2.54.71,3.47,1.11.92.4,1.63.77,2.12,1.11.49.34.77.51.83.51s.18-.07.35-.21c.17-.14.35-.31.55-.51.2-.2.41-.43.62-.69.22-.26.42-.53.6-.81h.51v10.35l-.55.05Z"/>
  <path class="cls-1" d="M134.94,28.83c-.6,1.17-1.43,2.17-2.5,3-1.06.83-2.33,1.45-3.81,1.85-1.48.4-3.1.6-4.85.6-1.51,0-2.8-.09-3.88-.28-1.08-.19-1.97-.41-2.68-.67-.71-.26-1.24-.5-1.59-.72-.35-.22-.58-.32-.67-.32s-.29.18-.6.55c-.31.37-.59.72-.83,1.06h-.42l-.14-9.19h.46c.28.83.63,1.64,1.06,2.43.43.79.9,1.52,1.41,2.22s1.05,1.3,1.62,1.82c.57.52,1.12.92,1.64,1.2.52.28,1.22.55,2.08.83.86.28,1.69.42,2.5.42,2.28,0,4.13-.62,5.54-1.87,1.42-1.25,2.13-2.93,2.13-5.06,0-.86-.14-1.62-.42-2.26-.28-.65-.65-1.21-1.13-1.69-.48-.48-1.04-.88-1.69-1.22-.65-.34-1.34-.65-2.08-.92-.74-.28-1.39-.51-1.94-.69-.55-.18-1.07-.36-1.55-.53-.48-.17-.97-.34-1.48-.51-.51-.17-1.12-.39-1.83-.67-.8-.31-1.57-.73-2.31-1.27-.74-.54-1.39-1.17-1.94-1.89-.55-.72-1-1.52-1.34-2.4-.34-.88-.51-1.81-.51-2.8,0-1.66.3-3.1.91-4.3.61-1.2,1.42-2.2,2.45-3,1.03-.8,2.21-1.39,3.55-1.78,1.34-.38,2.75-.58,4.23-.58,1.39,0,2.57.12,3.56.35.99.23,1.79.49,2.43.76.63.28,1.11.53,1.43.76s.5.35.53.35c.09,0,.28-.19.58-.55.29-.37.56-.74.81-1.11h.51v8.55h-.51c-.37-1.02-.85-2.03-1.43-3.03-.58-1-1.26-1.89-2.03-2.68-.77-.79-1.65-1.42-2.63-1.92-.99-.49-2.08-.74-3.28-.74-.96,0-1.86.14-2.7.42-.85.28-1.59.69-2.22,1.25s-1.12,1.24-1.48,2.06c-.35.82-.53,1.75-.53,2.8,0,1.63.49,2.94,1.47,3.93.98.99,2.26,1.77,3.83,2.36.61.25,1.19.46,1.73.65s1.07.36,1.59.53c.52.17,1.05.35,1.59.53.54.18,1.1.39,1.68.6,2.09.77,3.71,1.89,4.86,3.35,1.15,1.46,1.73,3.29,1.73,5.48,0,1.48-.3,2.8-.9,3.97Z"/>
</svg>